<svg width="84" height="14" viewBox="0 0 84 14" fill="none" xmlns="http://www.w3.org/2000/svg">
<path d="M83.9648 9.96283V0.0579834H81.4117V8.49612L76.9934 11.0312L72.5933 8.49612V0.0579834H70.0401V9.96283L76.9934 13.9827L83.9648 9.96283Z" fill="white"/>
<path d="M0 4.07787V13.9827H2.55317V5.54458L6.95331 3.00952L11.3716 5.54458V13.9827H13.9247V4.07787L6.95331 0.0579834L0 4.07787Z" fill="white"/>
<path d="M46.4459 0.0579834V10.4155L37.6275 0.0579834H35.0743V13.9827H37.6275V3.98733L46.12 13.9827H46.4459H46.6632H48.9991V0.0579834H46.4459Z" fill="white"/>
<path d="M63.9379 11.4296H52.5663V13.9828H63.9379H66.4911V11.4296V8.89453H63.9379V11.4296Z" fill="white"/>
<path d="M66.4911 2.61115V0.0579834H52.5663V0.076091V2.61115V5.72566V7.44588V8.27883H66.4911V5.72566H55.1014V2.61115H66.4911Z" fill="white"/>
<path d="M27.3968 0.0579834H21.0772V2.61115H25.9301L28.4651 7.01129L25.9301 11.4295H20.0451V2.62926V2.61115V0.0579834H17.4919V2.61115V11.4295V13.9827H20.0451H27.3968L31.4167 7.01129L27.3968 0.0579834Z" fill="white"/>
</svg>
