<svg width="141" height="34" viewBox="0 0 141 34" fill="none" xmlns="http://www.w3.org/2000/svg">
<path d="M14.892 19.2727L21.5656 25.9569L14.9204 32.6127L8.24677 25.9285L14.892 19.2727Z" fill="white"/>
<path d="M0.711731 0.162598H140.712V25.9735H0.711731V0.162598Z" fill="white"/>
<path d="M31.8002 7.82856V18.3073H29.5596V10.0081H26.095V13.9063C26.095 15.5689 25.7354 16.7495 25.0161 17.4481C24.2969 18.1467 23.2735 18.4331 21.9457 18.3073V16.1906C22.5819 16.3024 23.0591 16.1697 23.3772 15.7924C23.6953 15.4152 23.8544 14.7515 23.8544 13.8015V7.82856H31.8002Z" fill="#382459"/>
<path d="M41.3611 7.82856V10.0081H36.6517V18.3073H34.4111V7.82856H41.3611Z" fill="#382459"/>
<path d="M47.3707 18.5798C45.8493 18.5798 44.5562 18.0489 43.4912 16.987C42.4262 15.9252 41.8937 14.6188 41.8937 13.0679C41.8937 11.5171 42.4262 10.2107 43.4912 9.14888C44.5562 8.08704 45.8493 7.55611 47.3707 7.55611C48.906 7.55611 50.1992 8.08704 51.2503 9.14888C52.3153 10.2107 52.8478 11.5171 52.8478 13.0679C52.8478 14.6188 52.3153 15.9252 51.2503 16.987C50.1992 18.0489 48.906 18.5798 47.3707 18.5798ZM45.0679 15.4362C45.6903 16.0649 46.4579 16.3792 47.3707 16.3792C48.2836 16.3792 49.0512 16.0649 49.6736 15.4362C50.296 14.8074 50.6072 14.018 50.6072 13.0679C50.6072 12.1179 50.296 11.3285 49.6736 10.6997C49.0512 10.071 48.2836 9.75665 47.3707 9.75665C46.4579 9.75665 45.6903 10.071 45.0679 10.6997C44.4455 11.3285 44.1343 12.1179 44.1343 13.0679C44.1343 14.018 44.4455 14.8074 45.0679 15.4362Z" fill="#382459"/>
<path d="M60.2495 7.55611C61.6741 7.55611 62.8913 8.09402 63.9009 9.16984C64.9106 10.2317 65.4154 11.5311 65.4154 13.0679C65.4154 14.6188 64.9106 15.9252 63.9009 16.987C62.8913 18.0489 61.6741 18.5798 60.2495 18.5798C58.6728 18.5798 57.4625 17.993 56.6188 16.8193V21.7543H54.3782V7.82856H56.6188V9.3375C57.4625 8.14991 58.6728 7.55611 60.2495 7.55611ZM57.5525 15.4781C58.1748 16.1068 58.9563 16.4212 59.8968 16.4212C60.8373 16.4212 61.6188 16.1068 62.2412 15.4781C62.8636 14.8354 63.1748 14.032 63.1748 13.0679C63.1748 12.1039 62.8636 11.3075 62.2412 10.6788C61.6188 10.0361 60.8373 9.71474 59.8968 9.71474C58.9563 9.71474 58.1748 10.0361 57.5525 10.6788C56.9301 11.3075 56.6188 12.1039 56.6188 13.0679C56.6188 14.032 56.9301 14.8354 57.5525 15.4781Z" fill="#382459"/>
<path d="M74.4609 7.82856H76.1828V18.3073H73.9837V11.6428L68.6725 18.3073H66.9505V7.82856H69.1497V14.4721L74.4609 7.82856Z" fill="#382459"/>
<path d="M86.7077 7.82856V10.0081H83.326V18.3073H81.0854V10.0081H77.683V7.82856H86.7077Z" fill="#382459"/>
<path d="M98.8044 7.82856V18.3073H96.626V11.4123L93.6385 16.2116H93.3688L90.4021 11.4333V18.3073H88.2238V7.82856H90.5059L93.5141 12.6698L96.5223 7.82856H98.8044Z" fill="#382459"/>
<path d="M108.903 7.82856H110.625V18.3073H108.426V11.6428L103.115 18.3073H101.393V7.82856H103.592V14.4721L108.903 7.82856Z" fill="#382459"/>
<path d="M122.147 18.3073H119.47L115.217 13.4661V18.3073H112.977V7.82856H115.217V12.4602L119.242 7.82856H121.981L117.417 12.9632L122.147 18.3073Z" fill="#382459"/>
<path d="M130.543 7.82856H132.784V18.3073H130.543V16.7984C129.699 17.986 128.489 18.5798 126.913 18.5798C125.488 18.5798 124.271 18.0489 123.261 16.987C122.252 15.9112 121.747 14.6048 121.747 13.0679C121.747 11.5171 122.252 10.2107 123.261 9.14888C124.271 8.08704 125.488 7.55611 126.913 7.55611C128.489 7.55611 129.699 8.14292 130.543 9.31655V7.82856ZM124.921 15.4781C125.543 16.1068 126.325 16.4212 127.265 16.4212C128.206 16.4212 128.987 16.1068 129.61 15.4781C130.232 14.8354 130.543 14.032 130.543 13.0679C130.543 12.1039 130.232 11.3075 129.61 10.6788C128.987 10.0361 128.206 9.71474 127.265 9.71474C126.325 9.71474 125.543 10.0361 124.921 10.6788C124.299 11.3075 123.987 12.1039 123.987 13.0679C123.987 14.032 124.299 14.8354 124.921 15.4781Z" fill="#382459"/>
<path d="M18.9542 18.3073L17.6852 15.3523H11.9861L10.7387 18.3073H8.14539L13.5967 4.38159H16.0746L21.5267 18.3073H18.9542ZM12.7295 13.0889H16.9418L14.8357 7.23568L12.7295 13.0889Z" fill="#382459"/>
</svg>
