<svg width="80" height="108" viewBox="0 0 80 108" fill="none" xmlns="http://www.w3.org/2000/svg">
<path d="M30.6783 66.9474L10.3855 65.6801L15.4601 50.2998M15.4601 50.2998L10.3853 44.9092M15.4601 50.2998L21.0075 52.5198M15.4601 50.2998L8.48354 47.9214" stroke="#FF1DC0" stroke-width="3.22266" stroke-linecap="round" stroke-linejoin="round"/>
<path d="M27.86 52.792L18.0568 89.6247C17.6328 91.2187 19.0931 92.6733 20.6852 92.2438L57.4848 82.3174C59.0768 81.888 59.6075 79.8963 58.4394 78.7318L31.4431 51.8254C30.2755 50.6628 28.2845 51.1999 27.86 52.792Z" fill="#FF1DC0"/>
<path d="M29.4306 69.8179C28.8749 69.7068 28.6614 69.0932 29.1698 68.8428C30.1449 68.3627 31.6549 68.2211 33.2666 68.5434C34.8783 68.8657 36.2178 69.5771 36.9332 70.3953C37.3063 70.8219 36.8732 71.3062 36.3175 71.1951L29.4306 69.8179Z" fill="white"/>
<path d="M30.1494 66.6787C30.8782 67.0162 31.6782 66.6521 31.9362 65.8655C32.1943 65.079 31.8127 64.1678 31.0839 63.8304C30.3551 63.493 29.5551 63.857 29.2971 64.6436C29.039 65.4302 29.4206 66.3413 30.1494 66.6787Z" fill="white"/>
<path d="M35.4584 67.0905C36.1871 67.4279 36.9871 67.0638 37.2452 66.2773C37.5033 65.4908 37.1217 64.5797 36.393 64.2423C35.6642 63.9049 34.8642 64.269 34.6061 65.0555C34.3481 65.8421 34.7296 66.7532 35.4584 67.0905Z" fill="white"/>
<path d="M54.7103 81.06L50.8172 102.582L63.3434 96.1228L62.0754 102.581" stroke="#FF1DC0" stroke-width="3.22266" stroke-linecap="round" stroke-linejoin="round"/>
<path d="M30.0704 86.7679L8.03082 86.7679L18.7826 102.582L14.491 102.581" stroke="#FF1DC0" stroke-width="3.22266" stroke-linecap="round" stroke-linejoin="round"/>
<path d="M44.3161 66.9474L67.7822 69.3261L63.3203 55.1889M63.3203 55.1889L69.3686 51.5678M63.3203 55.1889L57.1601 56.1659M63.3203 55.1889L69.3686 55.1889" stroke="#FF1DC0" stroke-width="3.22266" stroke-linecap="round" stroke-linejoin="round"/>
<ellipse rx="36.6527" ry="22.8173" transform="matrix(-1 0 0 1 43.3407 35.0308)" fill="#30FFCD"/>
<rect width="73.3119" height="12.3335" transform="matrix(-1 0 0 1 80 22.9745)" fill="#30FFCD"/>
<path d="M76.3549 12.9085C79.0697 16.4141 80.2991 20.2937 79.9261 24.1785C79.5531 28.0633 77.5902 31.8242 74.224 35.1036C70.8577 38.3829 66.2001 41.0718 60.6938 42.9146C55.1875 44.7573 49.0155 45.6927 42.7648 45.6317C36.514 45.5708 30.3922 44.5155 24.9813 42.5664C19.5704 40.6172 15.0502 37.8388 11.8506 34.4955C8.65098 31.1521 6.8782 27.3548 6.70083 23.4646C6.52345 19.5744 7.94736 15.7207 10.8372 12.2697L43.3387 22.8172L76.3549 12.9085Z" fill="#FF1DC0"/>
<path d="M76.3549 12.9085C73.4023 9.09575 68.8043 5.86946 63.075 3.59031C57.3457 1.31117 50.711 0.0690164 43.9127 0.00273664C37.1144 -0.0635432 30.4204 1.04866 24.5793 3.215C18.7382 5.38134 13.9802 8.51642 10.8372 12.2697L43.3387 22.8172L76.3549 12.9085Z" fill="white"/>
</svg>
