<svg width="26" height="27" viewBox="0 0 26 27" fill="none" xmlns="http://www.w3.org/2000/svg">
<path fill-rule="evenodd" clip-rule="evenodd" d="M8.14908 24.5172C7.92642 24.5729 7.60635 24.6563 7.57852 24.6563C7.7316 24.5311 7.91251 24.378 8.12125 24.211L8.14908 24.5172ZM16.777 11.7979V11.0047L17.612 11.45L17.3476 12.3545L16.777 11.7979ZM16.777 10.782C17.0136 10.9768 17.1667 11.0464 17.4728 11.2134C18.4887 11.7561 19.6994 12.452 20.7014 12.9251C20.757 12.7442 20.6457 12.5354 20.5344 12.4659C19.8664 12.0762 19.1845 11.7561 18.5305 11.4082C18.2661 11.2691 17.2224 10.7124 16.9301 10.4898C16.9162 10.4759 16.9162 10.462 16.9301 10.4759C17.9599 11.0047 19.7968 11.8118 20.7988 12.4659C20.8405 12.271 20.7988 12.2293 20.6735 12.1319C19.9777 11.6031 18.9619 11.0882 18.2521 10.782C17.9738 10.6568 17.2363 10.3367 16.9579 10.1558C16.944 10.1419 16.958 10.1419 16.9858 10.1558C17.9877 10.5176 19.2263 10.9073 20.3952 11.7283C20.4787 11.7979 20.5483 11.8396 20.8405 12.0345L20.8962 11.6727C20.8545 11.6309 20.6875 11.4917 20.6457 11.45C19.4907 10.448 18.2104 9.84965 17.0832 9.8079C17.0693 9.8079 17.0554 9.8079 17.0275 9.8079C16.9579 9.8079 16.9719 9.79398 17.0554 9.78007C17.6259 9.73832 18.1686 9.8079 18.6696 9.93314C18.7531 9.96097 18.8366 9.97489 18.9201 10.0027C19.7551 10.2532 20.4231 10.6289 20.757 10.8516C20.8405 10.9073 20.9101 10.949 20.9936 11.0186L24.3056 7.30301L24.1386 7.13601C24.1386 7.13601 24.3335 6.91336 24.3335 6.89944L24.2082 6.82986C24.0969 6.87161 21.9538 9.36258 21.0075 10.4202C20.8544 10.3506 20.7014 10.3089 20.5483 10.2393C19.0314 9.43216 17.0693 9.73832 16.7631 9.8079V10.782H16.777ZM16.777 9.71049V9.65482L18.5166 7.91531C18.9897 7.45608 19.4768 6.99685 19.9499 6.52371C20.103 6.37063 20.2978 6.18972 20.437 6.10622C20.6457 5.98098 21.0214 5.95315 21.3415 5.96706C21.7172 5.96706 22.0373 5.96706 22.3156 6.00881C23.0532 6.10622 23.7629 6.27322 24.2639 6.57937C23.1367 7.85965 22.26 8.86161 20.9936 10.2254C19.5881 9.51566 18.1965 9.34867 16.777 9.71049ZM16.6935 9.57133H16.6379C16.7631 9.09818 16.8188 8.63895 16.8188 8.1658L16.6518 8.22147C16.6518 8.88944 16.5683 9.41825 16.5405 9.57133H15.5663C15.3715 9.33475 15.3019 9.18167 15.1349 8.87552C15.1071 8.81986 15.0654 8.75028 15.0375 8.69461L18.3078 7.72049L17.9738 3.68483C18.5583 3.15602 19.1428 2.65504 19.7829 2.08448C20.0891 2.58546 20.2561 3.29518 20.3535 4.03273C20.3952 4.31105 20.3952 4.63112 20.3952 5.00685C20.3952 5.32692 20.3674 5.70266 20.2561 5.9114C20.1726 6.05056 19.9917 6.24538 19.8386 6.39846C19.3654 6.87161 18.9062 7.35867 18.447 7.83182L16.6935 9.57133ZM15.3576 9.57133L14.9123 8.73636L14.0077 9.00077L14.5644 9.55741H15.3576V9.57133ZM13.8547 8.86161L13.1728 8.17972C13.3537 7.91531 14.5087 6.30105 16.1508 5.81399C16.3039 5.74441 16.4431 5.67483 16.5961 5.61916C16.5126 4.21364 16.2621 0.915529 16.3178 0.818117L16.457 0.790285C16.457 0.804201 16.4848 1.09644 16.4848 1.09644H16.7214L16.9997 6.06448C16.9023 6.07839 16.8188 6.10622 16.7214 6.12014C16.3317 6.20364 15.5942 6.39846 14.8149 6.81594C14.7453 6.85769 14.6618 6.89944 14.5922 6.94119C14.1608 7.20559 13.7155 7.53958 13.3398 7.97098C13.2841 8.02664 13.2841 8.05447 13.3398 8.01273C13.3537 7.99881 13.3676 7.98489 13.3815 7.98489C14.2026 7.20559 15.5385 6.73245 17.0693 6.62112C17.1249 6.62112 17.3476 6.6072 17.4033 6.6072L17.6259 6.91336C17.278 6.96902 17.1945 6.98294 17.0832 7.01077C15.6638 7.26126 14.5226 7.85965 13.5624 8.30496C13.5346 8.31888 13.5346 8.33279 13.5485 8.33279C13.8825 8.2493 14.6201 7.97098 14.8984 7.85965C15.622 7.58133 16.7075 7.23343 17.5703 7.10818C17.7233 7.08035 17.779 7.08035 17.8903 7.24734C16.7214 7.49783 14.8427 8.22147 13.7433 8.58328C13.7294 8.58328 13.7294 8.5972 13.7573 8.5972C14.133 8.54154 15.2602 8.19363 15.5385 8.11014C16.2621 7.9014 16.9579 7.65091 17.7094 7.44217C17.8207 7.41433 18.0573 7.48391 18.1408 7.65091C17.0971 8.01272 15.7473 8.38846 14.6479 8.72244C14.3139 8.77811 14.1608 8.81986 13.8547 8.86161ZM13.1032 8.11014C13.8408 6.85769 14.9401 5.98098 16.4291 5.48C16.3596 3.61525 16.2621 2.29322 16.1647 0.59546C15.5942 0.73462 14.9819 1.11035 14.3835 1.56958C14.1608 1.73658 13.9382 1.97315 13.6738 2.23756C13.4511 2.46021 13.1867 2.75245 13.131 2.97511C13.0893 3.1421 13.0893 3.39259 13.0893 3.61525C13.0893 4.28322 13.0754 4.95119 13.0615 5.61916V8.08231L13.1032 8.11014ZM12.9362 8.06839L12.8945 8.11014C12.1569 6.85769 11.0575 5.98098 9.56852 5.48C9.6381 3.61525 9.73551 2.29322 9.83292 0.59546C10.4035 0.73462 11.0158 1.11035 11.6142 1.56958C11.8368 1.73658 12.0595 1.97315 12.3239 2.23756C12.5466 2.46021 12.811 2.75245 12.8666 2.97511C12.9084 3.1421 12.9084 3.39259 12.9084 3.61525C12.9084 4.28322 12.9223 4.95119 12.9362 5.61916V8.06839ZM12.8388 8.1658C12.6579 7.9014 11.5029 6.28713 9.86075 5.80007C9.70768 5.73049 9.56852 5.66091 9.41544 5.60524C9.49894 4.19972 9.74943 0.901613 9.69376 0.804201L9.5546 0.776369C9.5546 0.790285 9.52677 1.08252 9.52677 1.08252H9.2902L9.01188 6.05056C9.10929 6.06448 9.19278 6.09231 9.2902 6.10622C9.67985 6.18972 10.4174 6.38454 11.1967 6.80203C11.2663 6.84378 11.3498 6.88552 11.4194 6.92727C11.8508 7.19168 12.2961 7.52566 12.6718 7.95706C12.7275 8.01273 12.7275 8.04056 12.6718 7.99881C12.6579 7.98489 12.644 7.97098 12.6301 7.97098C11.809 7.19168 10.4731 6.71853 8.9423 6.6072C8.88663 6.6072 8.66397 6.59329 8.60831 6.59329L8.38565 6.89944C8.73355 6.9551 8.81705 6.96902 8.92838 6.99685C10.3478 7.24734 11.4889 7.84573 12.4491 8.29105C12.477 8.30496 12.477 8.31888 12.4631 8.31888C12.1291 8.23538 11.3915 7.95706 11.1132 7.84573C10.3896 7.56741 9.30411 7.21951 8.44132 7.09426C8.28824 7.06643 8.23257 7.06643 8.12125 7.23343C9.2902 7.48391 11.1689 8.20755 12.2682 8.56937C12.2822 8.56937 12.2822 8.58328 12.2543 8.58328C11.8786 8.52762 10.7514 8.17972 10.4731 8.09622C9.74943 7.88748 9.05362 7.63699 8.30216 7.42825C8.19083 7.40042 7.95426 7.47 7.87076 7.63699C8.91446 7.99881 10.2643 8.37454 11.3637 8.70853C11.6977 8.80594 11.8508 8.86161 12.1569 8.88944L12.8388 8.1658ZM11.9899 9.01468L11.4333 9.57133H10.6401L11.0854 8.73636L11.9899 9.01468ZM10.4174 9.57133H9.44327C9.41544 9.41825 9.33195 8.88944 9.33195 8.22147L10.9462 8.70853C10.9184 8.76419 10.8766 8.83377 10.8488 8.88944C10.6957 9.19559 10.6122 9.33475 10.4174 9.57133ZM9.35978 9.57133H9.30411L7.5646 7.83182C7.10537 7.35867 6.64614 6.87161 6.173 6.39846C6.01992 6.24538 5.83901 6.05056 5.75551 5.9114C5.63027 5.71657 5.60244 5.32692 5.61635 5.00685C5.61635 4.63112 5.61635 4.31105 5.6581 4.03273C5.75552 3.29518 5.92251 2.58546 6.22866 2.08448C6.88272 2.65504 7.45328 3.15602 8.03775 3.68483L7.70376 7.72049L9.19279 8.1658C9.17887 8.63895 9.23453 9.11209 9.35978 9.57133ZM9.22062 9.65482V9.71049C7.81509 9.34867 6.42349 9.51566 5.00405 10.2115C3.73769 8.84769 2.86097 7.84573 1.73377 6.56545C2.23475 6.2593 2.94447 6.09231 3.68202 5.99489C3.96034 5.95315 4.28041 5.95315 4.65615 5.95315C4.97622 5.95315 5.35195 5.98098 5.56069 6.09231C5.69985 6.1758 5.89468 6.35671 6.04775 6.50979C6.5209 6.98294 7.00796 7.44217 7.48111 7.9014L9.22062 9.65482ZM9.22062 9.8079V10.782C8.98404 10.9768 8.83097 11.0464 8.52481 11.2134C7.50894 11.7561 6.29824 12.452 5.29629 12.9251C5.24062 12.7442 5.35195 12.5354 5.46328 12.4659C6.13125 12.0762 6.81314 11.7561 7.46719 11.4082C7.7316 11.2691 8.7753 10.7124 9.06754 10.4898C9.08146 10.4759 9.08146 10.462 9.06754 10.4759C8.03775 11.0047 6.20083 11.8118 5.19887 12.4659C5.15712 12.271 5.19887 12.2293 5.32412 12.1319C6.01992 11.6031 7.03579 11.0882 7.74551 10.782C8.02383 10.6568 8.76139 10.3367 9.03971 10.1558C9.05362 10.1419 9.03971 10.1419 9.01188 10.1558C8.00992 10.5176 6.77139 10.9073 5.60244 11.7283C5.51894 11.7979 5.44936 11.8396 5.15713 12.0345L5.10146 11.6727C5.14321 11.6309 5.3102 11.4917 5.35195 11.45C6.50698 10.448 7.78726 9.84965 8.91446 9.8079C8.92838 9.8079 8.9423 9.8079 8.97013 9.8079C9.03971 9.8079 9.02579 9.79398 8.9423 9.78007C8.37174 9.73832 7.82901 9.8079 7.32803 9.93314C7.24453 9.96097 7.16104 9.97489 7.07754 10.0027C6.24258 10.2532 5.57461 10.6289 5.24062 10.8516C5.15712 10.9073 5.08754 10.949 5.00405 11.0186L1.69202 7.30301L1.85902 7.13601C1.85902 7.13601 1.66419 6.91336 1.66419 6.89944L1.78944 6.82986C1.90076 6.87161 4.04384 9.36258 4.99013 10.4341C5.14321 10.3645 5.29628 10.3228 5.44936 10.2532C6.93838 9.43216 8.90055 9.75223 9.22062 9.8079ZM9.22062 11.0047L8.38565 11.45L8.65006 12.3545L9.2067 11.7979V11.0047H9.22062ZM8.49698 12.5076C8.45523 12.2015 8.41348 12.0484 8.31607 11.7144C8.30216 11.6448 8.27432 11.5892 8.26041 11.5196L6.78531 12.3128C7.25845 12.7999 7.68985 13.106 7.81509 13.1895L8.49698 12.5076ZM7.74551 13.2591C7.32803 13.0086 6.9523 12.7303 6.61831 12.3963L5.25454 13.1338L2.63832 10.0445C1.8451 10.0862 1.07972 10.1419 0.230836 10.1975C0.369997 10.7681 0.745731 11.3804 1.20496 11.9788C1.37195 12.2015 1.60853 12.4241 1.87293 12.6885C2.09559 12.9112 2.38783 13.1756 2.61048 13.2313C2.77748 13.273 3.02797 13.273 3.25062 13.273C3.91859 13.273 4.58657 13.2869 5.25454 13.3008H7.71768L7.74551 13.2591ZM7.70376 13.4261L7.74551 13.4678C7.32803 13.7183 6.9523 13.9966 6.61831 14.3306L5.25454 13.5931L2.22083 17.1834L0.731815 17.0999V16.8633C0.731815 16.8633 0.439578 16.8355 0.425662 16.8355L0.453494 16.6964C0.509158 16.6685 1.46937 16.7242 2.55482 16.7938L2.63832 16.6824C1.8451 16.6407 1.07972 16.585 0.230836 16.5294C0.369997 15.9588 0.745731 15.3465 1.20496 14.7481C1.37195 14.5254 1.60853 14.3028 1.87293 14.0384C2.09559 13.8157 2.38783 13.5513 2.61048 13.4957C2.77748 13.4539 3.02797 13.4539 3.25062 13.4539C3.91859 13.4539 4.58657 13.44 5.25454 13.4261H7.70376ZM7.81509 13.5235C7.68985 13.607 7.25845 13.9271 6.78531 14.4002L8.26041 15.1934C8.27432 15.1238 8.30216 15.0682 8.31607 14.9986C8.41348 14.6646 8.46915 14.5115 8.49698 14.2054L7.81509 13.5235ZM8.65006 14.3724L9.2067 14.929V15.7222L8.37174 15.2769L8.65006 14.3724ZM9.22062 15.931C8.98404 15.7361 8.83097 15.6666 8.52481 15.4996C7.50894 14.9568 6.29824 14.261 5.29629 13.7879C5.24062 13.9688 5.35195 14.1775 5.46328 14.2471C6.13125 14.6368 6.81314 14.9568 7.46719 15.3047C7.7316 15.4439 8.7753 16.0006 9.06754 16.2232C9.08146 16.2371 9.08146 16.251 9.06754 16.2371C8.03775 15.7083 6.20083 14.9012 5.18496 14.2471C5.14321 14.4419 5.18496 14.4837 5.3102 14.5811C6.006 15.1099 7.02188 15.6248 7.7316 15.931C8.00992 16.0562 8.73355 16.3763 9.02579 16.5572C9.03971 16.5711 9.02579 16.5711 8.99796 16.5572C7.996 16.1954 6.75747 15.8057 5.58852 14.9847C5.50503 14.9151 5.43545 14.8733 5.14321 14.6785L5.08754 15.0403C5.12929 15.0821 5.29628 15.2212 5.33803 15.263C6.49307 16.265 7.77335 16.8633 8.91446 16.9051C8.92838 16.9051 8.9423 16.9051 8.97013 16.9051C9.03971 16.9051 9.02579 16.919 8.9423 16.9329C8.37174 16.9747 7.82901 16.9051 7.32803 16.7799C7.24453 16.752 7.16104 16.7381 7.07754 16.7103C6.24258 16.4598 5.57461 16.084 5.24062 15.8614C5.15712 15.8057 5.08754 15.764 5.00405 15.6944L1.69202 19.41L1.85902 19.577C1.85902 19.577 1.66419 19.7996 1.66419 19.8136L1.78944 19.8831C1.90076 19.8414 4.04384 17.3504 4.99013 16.2789C5.14321 16.3485 5.29628 16.3902 5.44936 16.4598C6.96621 17.2669 8.92838 16.9608 9.23453 16.8912V15.931H9.22062ZM9.22062 17.0025C7.81509 17.3643 6.42349 17.2112 5.00405 16.5015C3.73769 17.8653 2.86097 18.8673 1.73377 20.1475C2.23475 20.4537 2.94447 20.6207 3.68202 20.7181C3.96034 20.7598 4.28041 20.7598 4.65615 20.7598C4.97622 20.7598 5.35195 20.732 5.56069 20.6207C5.69985 20.5372 5.89468 20.3563 6.04775 20.2032C6.5209 19.7301 7.00796 19.2708 7.48111 18.8116L9.22062 17.0721V17.0025ZM9.30411 17.1417L7.5646 18.8812C7.10537 19.3543 6.64614 19.8414 6.173 20.3145C6.01992 20.4676 5.83901 20.6624 5.75551 20.8016C5.63027 21.0103 5.60244 21.3861 5.61635 21.7061C5.61635 22.0819 5.61635 22.4019 5.6581 22.6803C5.75552 23.4178 5.92251 24.1275 6.22866 24.6285C6.88272 24.058 7.45328 23.557 8.03775 23.0282L7.70376 18.9925L9.19279 18.5472C9.19279 18.088 9.26236 17.6148 9.37369 17.1417H9.30411ZM9.44327 17.1417H10.4174C10.6122 17.3782 10.6818 17.5313 10.8488 17.8375C10.8766 17.8931 10.9184 17.9627 10.9462 18.0184L9.33195 18.5054C9.33195 17.8236 9.41544 17.2947 9.44327 17.1417ZM10.6401 17.1417L11.0854 17.9766L11.9899 17.7122L11.4333 17.1556H10.6401V17.1417ZM12.143 17.8514C11.8368 17.8931 11.6838 17.9349 11.3498 18.0323C10.2504 18.3663 8.90055 18.7281 7.85684 19.1038C7.94034 19.2708 8.17691 19.3404 8.28824 19.3126C9.03971 19.1038 9.73551 18.8533 10.4591 18.6446C10.7375 18.5611 11.8786 18.2132 12.2404 18.1575C12.2682 18.1575 12.2682 18.1575 12.2543 18.1715C11.155 18.5333 9.27628 19.2569 8.10733 19.5074C8.21866 19.6744 8.27432 19.6744 8.4274 19.6466C9.2902 19.5213 10.3757 19.1734 11.0993 18.8951C11.3915 18.7838 12.1291 18.4915 12.4631 18.4219C12.4909 18.4219 12.477 18.4359 12.4491 18.4498C11.475 18.8951 10.3339 19.5074 8.92838 19.744C8.81705 19.7579 8.74747 19.7718 8.38565 19.8414L8.60831 20.1475C8.66397 20.1475 8.88663 20.1336 8.9423 20.1336C10.4591 20.0223 11.7951 19.5491 12.6301 18.7698C12.644 18.7559 12.6579 18.742 12.6718 18.742C12.7136 18.7003 12.7136 18.7142 12.6718 18.7838C12.2961 19.2152 11.8647 19.5491 11.4194 19.8136C11.3498 19.8553 11.2663 19.8971 11.1967 19.9388C10.4313 20.3563 9.69376 20.5511 9.30411 20.6346C9.2067 20.6485 9.1232 20.6764 9.02579 20.6903L9.30411 25.6583H9.54069C9.54069 25.6583 9.56852 25.9505 9.56852 25.9645L9.70768 25.9366C9.74943 25.8392 9.51285 22.5411 9.42936 21.1356C9.58243 21.0799 9.72159 21.0103 9.87467 20.9408C11.5168 20.4398 12.6857 18.8394 12.8527 18.575L12.143 17.8514ZM12.8945 18.6029L12.9362 18.6446V21.1077C12.9223 21.7757 12.9084 22.4437 12.9084 23.1117C12.9084 23.3343 12.9084 23.5987 12.8666 23.7518C12.811 23.9884 12.5605 24.2667 12.3239 24.4894C12.0595 24.7538 11.8368 24.9903 11.6142 25.1573C11.0158 25.6166 10.4035 25.9923 9.83292 26.1315C9.72159 24.4337 9.6381 23.0977 9.56852 21.2469C11.0575 20.732 12.1569 19.8692 12.8945 18.6029ZM13.0615 18.6446L13.1032 18.6029C13.8408 19.8553 14.9401 20.732 16.4291 21.233C16.3596 23.0977 16.2621 24.4198 16.1647 26.1175C15.5942 25.9784 14.9819 25.6026 14.3835 25.1434C14.1608 24.9764 13.9382 24.7398 13.6738 24.4754C13.4511 24.2528 13.1867 23.9605 13.131 23.7379C13.0893 23.5709 13.0893 23.3204 13.0893 23.0977C13.0893 22.4298 13.0754 21.7618 13.0615 21.0938V18.6446ZM13.1589 18.5472C13.3398 18.8116 14.4948 20.4259 16.1369 20.9129C16.29 20.9825 16.4291 21.0521 16.5822 21.1077C16.4987 22.5133 16.2482 25.8114 16.3039 25.9088L16.4431 25.9366C16.4431 25.9227 16.4709 25.6305 16.4709 25.6305H16.7075L16.9858 20.6624C16.8884 20.6485 16.8049 20.6207 16.7075 20.6068C16.3178 20.5233 15.5803 20.3284 14.801 19.911C14.7314 19.8692 14.6479 19.8275 14.5783 19.7857C14.1469 19.5213 13.7016 19.1873 13.3259 18.7559C13.2702 18.7003 13.2702 18.6724 13.3259 18.7142C13.3398 18.7281 13.3537 18.742 13.3676 18.742C14.1887 19.5213 15.5246 19.9945 17.0554 20.1058C17.111 20.1058 17.3337 20.1197 17.3893 20.1197L17.612 19.8136C17.2641 19.7579 17.1806 19.744 17.0693 19.7161C15.6498 19.4657 14.5087 18.8673 13.5485 18.4219C13.5207 18.408 13.5207 18.3941 13.5346 18.408C13.8686 18.4915 14.6061 18.7698 14.8984 18.8812C15.622 19.1595 16.7075 19.5074 17.5703 19.6326C17.7233 19.6605 17.779 19.6605 17.8903 19.4935C16.7214 19.243 14.8427 18.5194 13.7433 18.1575C13.7294 18.1575 13.7294 18.1436 13.7573 18.1436C14.133 18.1993 15.2602 18.5472 15.5385 18.6307C16.2482 18.8394 16.9579 19.0899 17.7094 19.2987C17.8207 19.3265 18.0573 19.2569 18.1408 19.0899C17.0971 18.7281 15.7473 18.3524 14.6479 18.0184C14.3139 17.921 14.1608 17.8792 13.8547 17.8375L13.1589 18.5472ZM14.0077 17.6983L14.5644 17.1417H15.3576L14.9123 17.9766L14.0077 17.6983ZM15.5803 17.1417H16.5544C16.5822 17.2947 16.6657 17.8236 16.6657 18.4915L15.0514 18.0045C15.0793 17.9488 15.121 17.8792 15.1489 17.8236C15.3019 17.5313 15.3854 17.3922 15.5803 17.1417ZM17.9738 23.1673C18.7949 23.891 19.5185 24.5311 19.5324 24.5868L19.4628 24.712C19.4489 24.712 19.2263 24.5172 19.2263 24.5172L19.0593 24.6842L17.946 23.6822L17.9738 23.1673ZM17.9877 23.0282L18.3217 18.9925L16.8327 18.5472C16.8327 18.088 16.7631 17.6148 16.6518 17.1417H16.7075L18.447 18.8812C18.9062 19.3543 19.3654 19.8414 19.8386 20.3145C19.9917 20.4676 20.1726 20.6624 20.2561 20.8016C20.3813 21.0103 20.4091 21.3861 20.3952 21.7061C20.3952 22.0819 20.3952 22.4019 20.3535 22.6803C20.2561 23.4178 20.0891 24.1275 19.7829 24.6285C19.1428 24.058 18.5722 23.5431 17.9877 23.0282ZM16.777 17.0582V17.0025C18.1826 17.3643 19.5742 17.1973 20.9936 16.5015C22.26 17.8653 23.1367 18.8673 24.2639 20.1475C23.7629 20.4537 23.0532 20.6207 22.3156 20.7181C22.0373 20.7598 21.7172 20.7598 21.3415 20.7598C21.0214 20.7598 20.6457 20.732 20.437 20.6207C20.2978 20.5372 20.103 20.3563 19.9499 20.2032C19.4768 19.7301 18.9897 19.2708 18.5166 18.8116L16.777 17.0582ZM16.777 16.9051V15.931C17.0136 15.7361 17.1667 15.6666 17.4728 15.4996C18.4887 14.9568 19.6994 14.261 20.7014 13.7879C20.757 13.9688 20.6457 14.1775 20.5344 14.2471C19.8664 14.6368 19.1845 14.9568 18.5305 15.3047C18.2661 15.4439 17.2224 16.0006 16.9301 16.2232C16.9162 16.2371 16.9162 16.251 16.9301 16.2371C17.9599 15.7083 19.7968 14.9012 20.7988 14.2471C20.8405 14.4419 20.7988 14.4837 20.6735 14.5811C19.9777 15.1099 18.9619 15.6248 18.2521 15.931C17.9738 16.0562 17.2502 16.3763 16.9579 16.5572C16.944 16.5711 16.958 16.5711 16.9858 16.5572C17.9877 16.1954 19.2263 15.8057 20.3952 14.9847C20.4787 14.9151 20.5483 14.8733 20.8405 14.6785L20.8962 15.0403C20.8545 15.0821 20.6875 15.2212 20.6457 15.263C19.4907 16.265 18.2104 16.8633 17.0693 16.9051C17.0554 16.9051 17.0414 16.9051 17.0136 16.9051C16.944 16.9051 16.958 16.919 17.0414 16.9329C17.612 16.9747 18.1547 16.9051 18.6557 16.7799C18.7392 16.752 18.8227 16.7381 18.9062 16.7103C19.7412 16.4598 20.4091 16.084 20.7431 15.8614C20.8266 15.8057 20.8962 15.764 20.9797 15.6944L24.2917 19.41L24.1247 19.577C24.1247 19.577 24.3195 19.7996 24.3195 19.8136L24.1943 19.8831C24.083 19.8414 21.9399 17.3504 20.9936 16.2789C20.8405 16.3485 20.6875 16.3902 20.5344 16.4598C19.0593 17.2808 17.0971 16.9608 16.777 16.9051ZM16.777 15.7222L17.612 15.2769L17.3476 14.3724L16.791 14.929V15.7222H16.777ZM17.5007 14.2054C17.5424 14.5115 17.5842 14.6646 17.6816 14.9986C17.6955 15.0682 17.7233 15.1238 17.7372 15.1934L19.2124 14.3863C18.7392 13.8992 18.3078 13.5931 18.1826 13.5096L17.5007 14.2054ZM18.2521 13.4539C18.6696 13.7044 19.0454 13.9827 19.3793 14.3167L20.7431 13.5792L23.7768 17.1695L25.2658 17.086V16.8494C25.2658 16.8494 25.5581 16.8216 25.572 16.8216L25.5442 16.6824C25.4885 16.6546 24.5283 16.7103 23.4428 16.7799L23.3593 16.6685C24.1526 16.6268 24.9179 16.5711 25.7668 16.5154C25.6277 15.9449 25.2519 15.3326 24.7927 14.7342C24.6257 14.5115 24.3891 14.2889 24.1247 14.0245C23.9021 13.8018 23.6098 13.5374 23.3872 13.4817C23.2202 13.44 22.9697 13.44 22.747 13.44C22.0791 13.44 21.4111 13.4261 20.7431 13.4122H18.2939L18.2521 13.4539ZM18.2939 13.3008L18.2521 13.2591C18.6696 13.0086 19.0454 12.7303 19.3793 12.3963L20.7431 13.1338L23.3593 10.0445C24.1526 10.0862 24.9179 10.1419 25.7668 10.1975C25.6277 10.7681 25.2519 11.3804 24.7927 11.9788C24.6257 12.2015 24.3891 12.4241 24.1247 12.6885C23.9021 12.9112 23.6098 13.1756 23.3872 13.2313C23.2202 13.273 22.9697 13.273 22.747 13.273C22.0791 13.273 21.4111 13.2869 20.7431 13.3008H18.2939ZM18.1826 13.1895C18.3078 13.106 18.7392 12.7859 19.2124 12.3128L17.7372 11.5196C17.7233 11.5892 17.6955 11.6448 17.6816 11.7144C17.5842 12.0484 17.5285 12.2015 17.5007 12.5076L18.1826 13.1895ZM16.457 14.7899L17.8903 13.3565L16.457 11.9231V9.89139H14.4252L13.0058 8.45804L11.5724 9.89139H9.54069V11.9231L8.10733 13.3565L9.54069 14.7899V16.8216H11.5724L13.0058 18.255L14.4391 16.8216H16.4709V14.7899H16.457ZM8.14908 24.6146V24.6563C8.19083 24.6563 8.35782 24.6703 8.39957 24.6703C8.58048 24.9347 8.62223 24.9903 8.83097 25.38H9.13712C9.13712 25.5052 9.16495 25.7418 9.16495 25.7418H9.41544C9.42936 25.881 9.42936 25.9645 9.44327 26.0758L9.70768 26.034C9.72159 26.1175 9.7216 26.2149 9.74943 26.2706C10.487 26.1036 11.0854 25.7001 11.6142 25.3104C12.1152 24.9208 12.5466 24.4476 12.9362 23.9327C12.9362 23.9327 12.978 23.891 12.9919 23.8631C13.0058 23.891 13.0475 23.9327 13.0475 23.9327C13.4372 24.4476 13.8547 24.9208 14.3696 25.3104C14.8984 25.714 15.4828 26.1036 16.2343 26.2706C16.2621 26.201 16.2482 26.1036 16.2761 26.034L16.5405 26.0758C16.5544 25.9645 16.5683 25.8949 16.5683 25.7418H16.8188C16.8188 25.7418 16.8466 25.5052 16.8466 25.38H17.1528C17.3754 24.9903 17.4033 24.9347 17.5842 24.6703C17.6398 24.6703 17.7929 24.6703 17.8347 24.6563V24.6146C18.0712 24.6563 18.1686 24.6842 18.5583 24.7955L18.781 24.5728C18.8645 24.6563 19.0454 24.8094 19.0454 24.8094L19.2263 24.6285C19.3376 24.7259 19.3933 24.7816 19.4768 24.8373L19.6298 24.6285C19.6994 24.6703 19.7551 24.7398 19.8247 24.7677C20.2282 24.1136 20.3674 23.4178 20.4509 22.7638C20.5344 22.1375 20.5065 21.4974 20.4091 20.8573C20.4091 20.8573 20.4091 20.8016 20.4091 20.7598C20.437 20.7598 20.5065 20.7598 20.5065 20.7598C21.1467 20.8573 21.7729 20.8851 22.413 20.8016C23.0671 20.7181 23.7629 20.5789 24.417 20.1754C24.3891 20.1058 24.3195 20.0501 24.2778 19.9805L24.4865 19.8275C24.417 19.744 24.3752 19.6744 24.2778 19.577L24.4587 19.3961C24.4587 19.3961 24.3056 19.2152 24.2221 19.1178L24.4448 18.8951C24.3196 18.4637 24.3056 18.408 24.25 18.088C24.2917 18.0601 24.403 17.9349 24.4309 17.9071L24.1386 17.5591C24.403 17.5313 24.6396 17.5174 24.8344 17.4896C24.8205 17.5035 24.5422 17.6705 24.3474 17.7957L24.403 17.8653C24.5979 17.7261 24.6814 17.6844 25.0432 17.4896V17.1834C25.1684 17.1834 25.405 17.1556 25.405 17.1556V16.9051C25.5442 16.8912 25.6277 16.8912 25.739 16.8773L25.6972 16.6129C25.7807 16.5989 25.8781 16.5989 25.9338 16.5711C25.7668 15.8196 25.3633 15.2352 24.9597 14.7064C24.57 14.2054 24.0969 13.774 23.582 13.3843C23.582 13.3843 23.5403 13.3426 23.5124 13.3287C23.5403 13.3147 23.582 13.273 23.582 13.273C24.0969 12.8833 24.57 12.4659 24.9597 11.951C25.3633 11.4222 25.7529 10.8377 25.9338 10.0862C25.8642 10.0584 25.7668 10.0723 25.6972 10.0445L25.739 9.78007C25.6277 9.76615 25.5581 9.75223 25.405 9.75223V9.50174C25.405 9.50174 25.1684 9.47391 25.0432 9.47391V9.16776C24.6953 8.97293 24.6118 8.93119 24.403 8.79203H24.417C24.3891 8.76419 24.2917 8.63895 24.2361 8.61112C24.2917 8.29105 24.3056 8.23538 24.4309 7.80398L24.2082 7.58133C24.2917 7.49783 24.4448 7.31692 24.4448 7.31692L24.2778 7.1221C24.3752 7.01077 24.4309 6.9551 24.4865 6.87161L24.2778 6.71853C24.3195 6.64895 24.3891 6.57937 24.417 6.52371C23.7629 6.12014 23.0671 5.98098 22.413 5.89748C21.7868 5.81399 21.1467 5.84182 20.5065 5.93923C20.5065 5.93923 20.4509 5.93923 20.4091 5.93923C20.4091 5.9114 20.4091 5.84182 20.4091 5.84182C20.5065 5.20168 20.5344 4.57546 20.4509 3.93532C20.3674 3.28126 20.2282 2.58546 19.8247 1.9314C19.7551 1.95923 19.6994 2.02881 19.6298 2.07056L19.4768 1.86182C19.3933 1.9314 19.3237 1.97315 19.2263 2.07056L19.0454 1.88965C19.0454 1.88965 18.8645 2.04273 18.781 2.12623L18.5583 1.90357C18.1686 2.0149 18.0852 2.04273 17.8347 2.08448V2.04273C17.7929 2.04273 17.6259 2.02881 17.5842 2.02881C17.4033 1.76441 17.3615 1.70875 17.1528 1.3191H16.8466C16.8466 1.19385 16.8188 0.957277 16.8188 0.957277H16.5683C16.5544 0.818117 16.5544 0.73462 16.5405 0.623292L16.2761 0.66504C16.2621 0.59546 16.2621 0.484131 16.2343 0.428467C15.4828 0.59546 14.8984 0.999026 14.3696 1.38868C13.8686 1.77833 13.4372 2.25147 13.0475 2.76637C13.0475 2.76637 13.0058 2.80812 12.9919 2.83595C12.978 2.80812 12.9362 2.76637 12.9362 2.76637C12.5466 2.25147 12.1291 1.77833 11.6142 1.38868C11.0854 0.98511 10.5009 0.59546 9.74943 0.428467C9.7216 0.498047 9.72159 0.59546 9.70768 0.66504L9.44327 0.623292C9.42936 0.73462 9.41544 0.804201 9.41544 0.957277H9.16495C9.16495 0.957277 9.13712 1.19385 9.13712 1.3191H8.83097C8.60831 1.70875 8.58048 1.76441 8.39957 2.02881C8.3439 2.02881 8.19083 2.02882 8.14908 2.04273V2.08448C7.91251 2.04273 7.81509 2.0149 7.42544 1.90357L7.20279 2.12623C7.11929 2.04273 6.93838 1.88965 6.93838 1.88965L6.75747 2.07056C6.64614 1.97315 6.59048 1.91749 6.50698 1.86182L6.35391 2.07056C6.28433 2.02881 6.22866 1.95923 6.15908 1.9314C5.75552 2.58546 5.61635 3.28126 5.53286 3.93532C5.44936 4.56154 5.47719 5.20168 5.57461 5.84182C5.57461 5.84182 5.57461 5.89748 5.57461 5.93923C5.54678 5.93923 5.47719 5.93923 5.47719 5.93923C4.83705 5.84182 4.21083 5.81399 3.57069 5.89748C2.91664 5.98098 2.22083 6.12014 1.56678 6.52371C1.59461 6.59329 1.66419 6.64895 1.70594 6.71853L1.4972 6.87161C1.56678 6.9551 1.60853 7.02468 1.70594 7.1221L1.52503 7.30301C1.52503 7.30301 1.67811 7.48391 1.7616 7.58133L1.53895 7.80398C1.66419 8.23538 1.67811 8.29105 1.73377 8.61112C1.69202 8.63895 1.58069 8.76419 1.55286 8.79203L1.58069 8.81986C1.37195 8.95902 1.30237 9.00077 0.940556 9.19559V9.50174C0.815312 9.50174 0.578738 9.52958 0.578738 9.52958V9.78007C0.439577 9.79398 0.356082 9.79398 0.244753 9.8079L0.286502 10.0723C0.203005 10.0862 0.105591 10.0862 0.0499268 10.1141C0.21692 10.8655 0.620486 11.45 1.02405 11.9788C1.4137 12.4798 1.88685 12.9112 2.40174 13.3008C2.40174 13.3008 2.44349 13.3426 2.47132 13.3565C2.44349 13.3704 2.40174 13.4122 2.40174 13.4122C1.88685 13.8018 1.4137 14.2193 1.02405 14.7342C0.620486 15.263 0.230836 15.8475 0.0499268 16.5989C0.119507 16.6268 0.216921 16.6268 0.286502 16.6407L0.244753 16.9051C0.356082 16.919 0.425661 16.9329 0.578738 16.9329V17.1834C0.578738 17.1834 0.815312 17.2112 0.940556 17.2112V17.5174C1.28846 17.7122 1.37195 17.754 1.58069 17.8931L1.55286 17.921C1.58069 17.9488 1.67811 18.074 1.73377 18.1019C1.67811 18.4219 1.66419 18.4776 1.53895 18.909L1.7616 19.1317C1.67811 19.2152 1.52503 19.3961 1.52503 19.3961L1.70594 19.577C1.60853 19.6883 1.55286 19.744 1.4972 19.8275L1.70594 19.9805C1.66419 20.0501 1.59461 20.1058 1.56678 20.1754C2.22083 20.5789 2.91664 20.7181 3.57069 20.8016C4.19692 20.8851 4.83705 20.8573 5.47719 20.7598C5.47719 20.7598 5.53286 20.7598 5.57461 20.7598C5.57461 20.7877 5.57461 20.8573 5.57461 20.8573C5.47719 21.4974 5.44936 22.1236 5.53286 22.7638C5.61635 23.4178 5.75552 24.1136 6.15908 24.7677C6.22866 24.7398 6.28433 24.6703 6.35391 24.6285L6.50698 24.8373C6.59048 24.7677 6.66006 24.7259 6.75747 24.6285L6.93838 24.8094C6.93838 24.8094 7.11929 24.6563 7.20279 24.5728L7.42544 24.7955C7.81509 24.6842 7.91251 24.6703 8.14908 24.6146ZM23.7768 9.55741L25.2658 9.64091V9.87748C25.2658 9.87748 25.5581 9.90531 25.572 9.90531L25.5442 10.0445C25.4885 10.0723 24.5283 10.0166 23.4428 9.94706L23.7768 9.55741ZM24.0273 9.25126C24.5422 9.293 24.8901 9.32084 24.904 9.34867L24.8901 9.51566C24.8762 9.52958 24.4587 9.50175 23.8603 9.46L24.0273 9.25126ZM24.1247 9.13993L24.3195 8.90335C24.5144 9.01468 24.7927 9.19559 24.8066 9.20951C24.6257 9.18167 24.3891 9.15384 24.1247 9.13993ZM24.1108 8.72244L24.1943 8.80594L21.6894 11.7422C21.4111 12.0623 21.1467 12.3963 20.8544 12.7164C20.8823 12.5494 20.8962 12.3267 20.9379 12.1319C20.9797 11.951 21.0075 11.7283 21.0075 11.7283C21.1189 11.5892 23.4568 9.00077 24.2917 7.94314C24.2917 7.97098 24.1108 8.72244 24.1108 8.72244ZM24.2639 7.77615C24.2778 7.84573 21.8286 10.6429 20.9797 11.6031C20.2421 10.9351 19.3376 10.3924 18.8088 10.1141C19.5324 10.3367 20.2561 10.7124 20.9658 11.2273C21.9956 10.1697 24.083 7.67874 24.1386 7.67874L24.2639 7.77615ZM17.9321 3.0586L17.9738 3.55958C18.7949 2.83595 19.5185 2.19581 19.5324 2.14014L19.4628 2.0149C19.4489 2.0149 19.2263 2.20972 19.2263 2.20972L19.0593 2.04273L17.9321 3.0586ZM17.9182 2.90553C18.3635 2.51588 18.6835 2.23756 18.6835 2.20972L18.5722 2.08448C18.5583 2.08448 18.28 2.30714 17.8903 2.64112L17.9182 2.90553ZM18.4191 2.05665C18.3913 2.05665 18.0712 2.14014 17.8486 2.19581L17.8764 2.50196C18.0852 2.33497 18.2661 2.18189 18.4191 2.05665ZM17.5703 2.22364H17.6816C17.8207 3.93532 17.9738 5.64699 18.0852 7.34475C18.0017 7.20559 17.8347 7.0386 17.7233 6.85769C17.6259 6.70461 17.4868 6.52371 17.4868 6.52371C17.4589 6.35671 17.2919 2.86378 17.1389 1.52784C17.1806 1.56958 17.5703 2.22364 17.5703 2.22364ZM16.8605 1.45826L17.0275 1.44434C17.0832 1.48609 17.3337 5.20168 17.4172 6.46804C16.4152 6.52371 15.3994 6.76028 14.8288 6.9551C15.4968 6.59329 16.2761 6.35671 17.1389 6.21755C17.111 4.74245 16.8188 1.51392 16.8605 1.45826ZM8.98404 1.44434C8.92838 1.48609 8.67789 5.20168 8.59439 6.46804C9.59635 6.52371 10.6122 6.76028 11.1828 6.9551C10.5148 6.59329 9.73551 6.35671 8.87271 6.21755C8.90055 4.72853 9.17887 1.5 9.15104 1.45826L8.98404 1.44434ZM8.31607 2.22364H8.4274C8.4274 2.22364 8.81705 1.56958 8.84488 1.54175C8.69181 2.8777 8.52481 6.37063 8.49698 6.53762C8.49698 6.53762 8.37174 6.71853 8.27432 6.87161C8.163 7.0386 8.00992 7.21951 7.91251 7.35867C8.02383 5.64699 8.17691 3.93532 8.31607 2.22364ZM8.14908 2.19581L8.12125 2.50196C7.91251 2.33497 7.7316 2.18189 7.57852 2.05665C7.60635 2.05665 7.92642 2.14014 8.14908 2.19581ZM8.0795 2.90553C7.63419 2.51588 7.31412 2.23756 7.31412 2.20972L7.42544 2.08448C7.43936 2.08448 7.71768 2.30714 8.10733 2.64112L8.0795 2.90553ZM8.06558 3.0586L8.02383 3.55958C7.20279 2.83595 6.47915 2.19581 6.46523 2.14014L6.53482 2.0149C6.54873 2.0149 6.77139 2.20972 6.77139 2.20972L6.93838 2.04273L8.06558 3.0586ZM1.85902 7.67874L1.73377 7.79007C1.71986 7.85965 4.16908 10.6568 5.01796 11.617C5.75552 10.949 6.66006 10.4063 7.18887 10.128C6.46523 10.3506 5.7416 10.7264 5.03188 11.2413C4.00209 10.1697 1.9286 7.67874 1.85902 7.67874ZM1.70594 7.94314C1.70594 7.98489 1.88685 8.72244 1.88685 8.72244L1.80335 8.80594L4.30824 11.7422C4.58657 12.0623 4.85097 12.3963 5.14321 12.7164C5.10146 12.5494 5.10146 12.3267 5.05971 12.1319C5.01796 11.951 4.99013 11.7283 4.99013 11.7283C4.8788 11.5752 2.5409 8.98685 1.70594 7.94314ZM1.97034 9.25126C1.45545 9.293 1.10755 9.32084 1.09363 9.34867L1.10755 9.51566C1.12146 9.52958 1.53895 9.50175 2.13734 9.46L1.97034 9.25126ZM1.87293 9.13993L1.67811 8.90335C1.48328 9.01468 1.20496 9.19559 1.19105 9.20951C1.37195 9.18167 1.60853 9.15384 1.87293 9.13993ZM0.731815 9.87748C0.731815 9.87748 0.439578 9.90531 0.425662 9.90531L0.453494 10.0445C0.509158 10.0723 1.46937 10.0166 2.55482 9.94706L2.23475 9.55741L0.74573 9.64091L0.731815 9.87748ZM1.10755 17.2112C1.12146 17.1973 1.53895 17.2252 2.13734 17.2669L1.97034 17.4617C1.45545 17.42 1.10755 17.3782 1.09363 17.3643L1.10755 17.2112ZM1.67811 17.8236C1.48328 17.7122 1.20496 17.5313 1.19105 17.5174C1.38587 17.5452 1.62244 17.5591 1.88685 17.587L1.67811 17.8236ZM1.88685 18.0045C1.88685 18.0045 1.70594 18.742 1.70594 18.7838C2.5409 17.7261 4.89272 15.1378 4.99013 14.9986C4.99013 14.9986 5.03188 14.7759 5.05971 14.595C5.10146 14.4002 5.11538 14.1636 5.14321 14.0106C4.86489 14.3306 4.58657 14.6507 4.30824 14.9847L1.80335 17.921L1.88685 18.0045ZM1.73377 18.9368L1.85902 19.0482C1.9286 19.0482 4.00209 16.5572 5.03188 15.4857C5.75552 16.0005 6.46523 16.3902 7.18887 16.5989C6.64614 16.3206 5.75552 15.7779 5.01796 15.1099C4.16908 16.0701 1.71986 18.8673 1.73377 18.9368ZM8.06558 23.6683L8.02383 23.1673C7.20279 23.891 6.47915 24.5311 6.46523 24.5868L6.53482 24.712C6.54873 24.712 6.77139 24.5172 6.77139 24.5172L6.93838 24.6842L8.06558 23.6683ZM8.0795 23.8075C7.63419 24.1971 7.31412 24.4754 7.31412 24.5033L7.42544 24.6285C7.43936 24.6285 7.71768 24.4059 8.10733 24.0719L8.0795 23.8075ZM8.4274 24.4894C8.4274 24.4894 8.81705 25.1434 8.84488 25.1712C8.69181 23.8353 8.52481 20.3424 8.49698 20.1754C8.49698 20.1754 8.37174 19.9945 8.26041 19.8414C8.14908 19.6744 7.996 19.4935 7.89859 19.3543C8.00992 21.0521 8.16299 22.7638 8.30216 24.4754L8.4274 24.4894ZM9.13712 25.2547L8.97013 25.2687C8.91446 25.2269 8.66397 21.5113 8.58048 20.245C9.58243 20.1893 10.5983 19.9527 11.1689 19.7579C10.5009 20.1197 9.72159 20.3563 8.8588 20.4954C8.88663 21.9845 9.17887 25.213 9.13712 25.2547ZM17.0136 25.2687C17.0693 25.2269 17.3198 21.5113 17.4033 20.245C16.4013 20.1893 15.3854 19.9527 14.8149 19.7579C15.4828 20.1197 16.2621 20.3563 17.1249 20.4954C17.0971 21.9845 16.8188 25.213 16.8466 25.2547L17.0136 25.2687ZM17.6955 24.4894H17.5842C17.5842 24.4894 17.1945 25.1434 17.1667 25.1712C17.3198 23.8353 17.4868 20.3424 17.5146 20.1754C17.5146 20.1754 17.6398 19.9945 17.7512 19.8414C17.8625 19.6744 18.0156 19.4935 18.0991 19.3543C17.9877 21.066 17.8207 22.7777 17.6955 24.4894ZM17.8486 24.5172L17.8764 24.211C18.0852 24.378 18.2661 24.5311 18.4191 24.6563C18.3913 24.6563 18.0712 24.5729 17.8486 24.5172ZM18.5722 24.6285C18.5583 24.6285 18.28 24.4059 17.8903 24.0719L17.9182 23.8075C18.3635 24.1971 18.6835 24.4754 18.6835 24.5033L18.5722 24.6285ZM24.1386 19.0482L24.2639 18.9368C24.2778 18.8673 21.8286 16.0701 20.9797 15.1099C20.2421 15.7779 19.3515 16.3345 18.8088 16.5989C19.5324 16.3763 20.2561 16.0005 20.9658 15.4857C21.9956 16.5572 24.083 19.0343 24.1386 19.0482ZM24.1804 17.921C23.0671 16.6129 21.9677 15.2908 20.8405 14.0106C20.8823 14.1636 20.8962 14.4002 20.924 14.595C20.9658 14.7759 20.9936 14.9986 20.9936 14.9986C21.1049 15.1378 23.4428 17.7261 24.2778 18.7838C24.2778 18.742 24.0969 18.0045 24.0969 18.0045L24.1804 17.921ZM24.0273 17.4757C24.5422 17.4339 24.8901 17.4061 24.904 17.3782L24.8901 17.2112C24.8762 17.1973 24.4587 17.2252 23.8603 17.2669L24.0273 17.4757Z" fill="white"/>
</svg>
