<svg width="53" height="53" viewBox="0 0 53 53" fill="none" xmlns="http://www.w3.org/2000/svg">
<path d="M51.4305 2.40024C50.908 1.87889 50.2795 1.47603 49.5875 1.219C48.8956 0.96196 48.1565 0.856757 47.4203 0.910524C38.8251 1.554 30.7505 5.27669 24.6793 11.395L23.8815 12.2069H13.4747C13.334 12.207 13.1947 12.2352 13.065 12.2897C12.9353 12.3443 12.8177 12.4241 12.7192 12.5246L1.68408 23.821C1.53814 23.9699 1.43939 24.1585 1.40021 24.3633C1.36103 24.5681 1.38316 24.7799 1.46383 24.9721C1.5445 25.1644 1.68011 25.3285 1.85368 25.444C2.02724 25.5595 2.23104 25.6212 2.43952 25.6214H12.5922L15.3103 28.3396C11.1862 28.4909 7.27613 30.2136 4.38109 33.1547C-4.26771 41.9094 2.54543 51.8996 2.61603 51.9984C2.74507 52.1833 2.92973 52.3222 3.14315 52.3948C3.35657 52.4675 3.58761 52.4701 3.80264 52.4024C4.01767 52.3346 4.20547 52.2001 4.33872 52.0182C4.47196 51.8363 4.54369 51.6167 4.54347 51.3913C4.54347 47.9953 7.72764 44.7758 11.0883 44.7758C12.7018 44.7851 14.2458 45.4341 15.3814 46.5803C16.517 47.7266 17.1516 49.2765 17.146 50.89C17.1493 51.0814 17.2044 51.2684 17.3055 51.431C17.4066 51.5936 17.5499 51.7257 17.7201 51.8133C17.8903 51.901 18.0811 51.9408 18.2722 51.9287C18.4632 51.9165 18.6474 51.8528 18.8052 51.7443C20.8404 50.1648 22.4903 48.1435 23.6302 45.8332C24.7701 43.5228 25.3702 40.9837 25.3853 38.4075L28.2094 41.2316V51.3913C28.2096 51.6006 28.2718 51.8052 28.3882 51.9791C28.5046 52.1531 28.6699 52.2887 28.8633 52.3688C29.0567 52.4489 29.2695 52.4699 29.4748 52.4291C29.6801 52.3883 29.8687 52.2876 30.0168 52.1396L41.3132 40.8433C41.5085 40.6483 41.6199 40.3849 41.6239 40.109V29.9493L42.4358 29.1515C48.5541 23.0803 52.2768 15.0057 52.9203 6.41045C52.974 5.67429 52.8688 4.93517 52.6118 4.24324C52.3547 3.55131 51.9519 2.92276 51.4305 2.40024ZM13.9195 14.325H21.7634L12.5851 23.5033H4.95297L13.9195 14.325ZM18.9887 48.8002C18.5334 47.0478 17.5106 45.4954 16.0801 44.3855C14.6496 43.2756 12.8918 42.6705 11.0813 42.6648C7.60762 42.6648 4.37403 45.1076 3.0467 48.313C1.81116 45.2277 0.815667 39.7701 5.8708 34.6655C7.37075 33.1402 9.19937 31.9777 11.2171 31.2667C13.2348 30.5558 15.3883 30.3153 17.5131 30.5635L23.1613 36.2117C23.4472 38.4883 23.2209 40.8 22.499 42.9779C21.7771 45.1559 20.5778 47.145 18.9887 48.8002ZM39.5058 39.6713L30.3275 48.8496V41.2457L39.5058 32.0674V39.6713ZM40.9178 27.6688L39.8165 28.7702L39.7811 28.8055L29.2684 39.3041L14.5267 24.5623L25.0535 14.0355L25.0888 14.0002L26.1902 12.9129C31.8947 7.15296 39.4852 3.64349 47.5686 3.0286C48.003 2.98965 48.4407 3.04655 48.8507 3.19528C49.2607 3.34401 49.633 3.58094 49.9414 3.88935C50.2498 4.19775 50.4868 4.5701 50.6355 4.98011C50.7842 5.39012 50.8411 5.82778 50.8022 6.26219C50.1873 14.3456 46.6778 21.9361 40.9178 27.6406V27.6688Z" fill="#382459"/>
<path d="M37.0345 10.7948C35.4828 10.7956 33.9793 11.3345 32.7804 12.3194C31.5814 13.3044 30.761 14.6747 30.459 16.1967C30.157 17.7188 30.3921 19.2984 31.1242 20.6666C31.8563 22.0347 33.0402 23.1067 34.474 23.6999C35.9079 24.2931 37.503 24.3707 38.9877 23.9196C40.4724 23.4686 41.7548 22.5167 42.6164 21.2261C43.4779 19.9356 43.8654 18.3862 43.7127 16.842C43.56 15.2979 42.8766 13.8544 41.779 12.7576C41.1572 12.133 40.4177 11.6379 39.6033 11.301C38.7889 10.9641 37.9158 10.792 37.0345 10.7948ZM40.2822 20.7498C39.5321 21.5011 38.5447 21.9691 37.4883 22.0741C36.4318 22.1791 35.3716 21.9145 34.4884 21.3255C33.6051 20.7365 32.9534 19.8594 32.6442 18.8438C32.3351 17.8281 32.3876 16.7367 32.7929 15.7555C33.1982 14.7742 33.9312 13.9639 34.867 13.4624C35.8027 12.961 36.8834 12.7995 37.9249 13.0055C38.9664 13.2115 39.9042 13.7722 40.5787 14.5921C41.2531 15.412 41.6224 16.4404 41.6236 17.5021C41.6259 18.1052 41.5085 18.7028 41.2782 19.2603C41.048 19.8178 40.7094 20.324 40.2822 20.7498Z" fill="#382459"/>
</svg>
