<svg width="61" height="66" viewBox="0 0 61 66" fill="none" xmlns="http://www.w3.org/2000/svg">
<path d="M59.6308 20.0842L30.6386 0.756043C30.2828 0.518819 29.8196 0.518819 29.4638 0.756043L0.471624 20.0842C0.177212 20.2804 0 20.6116 0 20.9653C0 21.319 0.176506 21.6501 0.471624 21.8464L4.8751 24.7821V40.2532C4.8751 40.6139 5.05866 40.95 5.36225 41.1449L29.6488 56.7148C29.8232 56.8264 30.0216 56.8822 30.2207 56.8822C30.4289 56.8822 30.6379 56.8207 30.8173 56.6979L43.4883 48.0533V54.0814L38.7678 63.5223C38.604 63.8506 38.6216 64.241 38.8137 64.5531C39.0064 64.8645 39.3481 65.0551 39.7146 65.0551H49.3793C49.7465 65.0551 50.0875 64.8645 50.2802 64.5531C50.4723 64.241 50.4906 63.8506 50.3261 63.5223L45.6056 54.0814V46.6081L53.6381 41.1279C53.9268 40.9309 54.0998 40.6033 54.0998 40.2532V25.5333L59.6301 21.8464C59.9245 21.6501 60.1017 21.319 60.1017 20.9653C60.1017 20.6116 59.9252 20.2804 59.6308 20.0842ZM41.4288 62.937L44.5473 56.7L47.6658 62.937H41.4288ZM30.2023 54.5537L6.99317 39.6742V26.1941L29.4638 41.1752C29.6417 41.2938 29.8465 41.3531 30.0512 41.3531C30.256 41.3531 30.4607 41.2938 30.6386 41.1752L43.4883 32.6083V45.489L30.2023 54.5537ZM51.9824 39.694L45.6063 44.0445V31.1963L51.9824 26.9453V39.694ZM52.6736 23.9391C52.5176 23.997 52.3799 24.0894 52.2684 24.2095L44.5473 29.3571L30.6386 20.0842C30.1508 19.7594 29.4942 19.8914 29.1701 20.3779C28.846 20.8643 28.9774 21.5223 29.4638 21.8464L42.6382 30.6293L30.0512 39.0211L2.96813 20.9653L30.0512 2.91012L57.1343 20.9653L52.6736 23.9391Z" fill="#382459"/>
</svg>
