<svg width="125" height="18" viewBox="0 0 125 18" fill="none" xmlns="http://www.w3.org/2000/svg">
<path d="M23.8002 3.82856V14.3073H21.5596V6.00814H18.095V9.90625C18.095 11.5689 17.7354 12.7495 17.0161 13.4481C16.2969 14.1467 15.2735 14.4331 13.9457 14.3073V12.1906C14.5819 12.3024 15.0591 12.1697 15.3772 11.7924C15.6953 11.4152 15.8544 10.7515 15.8544 9.80146V3.82856H23.8002Z" fill="#382459"/>
<path d="M33.3611 3.82856V6.00814H28.6517V14.3073H26.4111V3.82856H33.3611Z" fill="#382459"/>
<path d="M39.3707 14.5798C37.8493 14.5798 36.5562 14.0489 35.4912 12.987C34.4262 11.9252 33.8937 10.6188 33.8937 9.06795C33.8937 7.51709 34.4262 6.21073 35.4912 5.14888C36.5562 4.08704 37.8493 3.55611 39.3707 3.55611C40.906 3.55611 42.1992 4.08704 43.2503 5.14888C44.3153 6.21073 44.8478 7.51709 44.8478 9.06795C44.8478 10.6188 44.3153 11.9252 43.2503 12.987C42.1992 14.0489 40.906 14.5798 39.3707 14.5798ZM37.0679 11.4362C37.6903 12.0649 38.4579 12.3792 39.3707 12.3792C40.2836 12.3792 41.0512 12.0649 41.6736 11.4362C42.296 10.8074 42.6072 10.018 42.6072 9.06795C42.6072 8.11787 42.296 7.32847 41.6736 6.69974C41.0512 6.07102 40.2836 5.75665 39.3707 5.75665C38.4579 5.75665 37.6903 6.07102 37.0679 6.69974C36.4455 7.32847 36.1343 8.11787 36.1343 9.06795C36.1343 10.018 36.4455 10.8074 37.0679 11.4362Z" fill="#382459"/>
<path d="M52.2495 3.55611C53.6741 3.55611 54.8913 4.09402 55.9009 5.16984C56.9106 6.23169 57.4154 7.53106 57.4154 9.06795C57.4154 10.6188 56.9106 11.9252 55.9009 12.987C54.8913 14.0489 53.6741 14.5798 52.2495 14.5798C50.6728 14.5798 49.4625 13.993 48.6188 12.8193V17.7543H46.3782V3.82856H48.6188V5.3375C49.4625 4.14991 50.6728 3.55611 52.2495 3.55611ZM49.5525 11.4781C50.1748 12.1068 50.9563 12.4212 51.8968 12.4212C52.8373 12.4212 53.6188 12.1068 54.2412 11.4781C54.8636 10.8354 55.1748 10.032 55.1748 9.06795C55.1748 8.1039 54.8636 7.30751 54.2412 6.67879C53.6188 6.03609 52.8373 5.71474 51.8968 5.71474C50.9563 5.71474 50.1748 6.03609 49.5525 6.67879C48.9301 7.30751 48.6188 8.1039 48.6188 9.06795C48.6188 10.032 48.9301 10.8354 49.5525 11.4781Z" fill="#382459"/>
<path d="M66.4609 3.82856H68.1828V14.3073H65.9837V7.64283L60.6725 14.3073H58.9505V3.82856H61.1497V10.4721L66.4609 3.82856Z" fill="#382459"/>
<path d="M78.7077 3.82856V6.00814H75.326V14.3073H73.0854V6.00814H69.683V3.82856H78.7077Z" fill="#382459"/>
<path d="M90.8044 3.82856V14.3073H88.626V7.4123L85.6385 12.2116H85.3688L82.4021 7.43326V14.3073H80.2238V3.82856H82.5059L85.5141 8.66975L88.5223 3.82856H90.8044Z" fill="#382459"/>
<path d="M100.903 3.82856H102.625V14.3073H100.426V7.64283L95.1147 14.3073H93.3928V3.82856H95.5919V10.4721L100.903 3.82856Z" fill="#382459"/>
<path d="M114.147 14.3073H111.47L107.217 9.46614V14.3073H104.977V3.82856H107.217V8.46018L111.242 3.82856H113.981L109.417 8.96316L114.147 14.3073Z" fill="#382459"/>
<path d="M122.543 3.82856H124.784V14.3073H122.543V12.7984C121.699 13.986 120.489 14.5798 118.913 14.5798C117.488 14.5798 116.271 14.0489 115.261 12.987C114.252 11.9112 113.747 10.6048 113.747 9.06795C113.747 7.51709 114.252 6.21073 115.261 5.14888C116.271 4.08704 117.488 3.55611 118.913 3.55611C120.489 3.55611 121.699 4.14292 122.543 5.31655V3.82856ZM116.921 11.4781C117.543 12.1068 118.325 12.4212 119.265 12.4212C120.206 12.4212 120.987 12.1068 121.61 11.4781C122.232 10.8354 122.543 10.032 122.543 9.06795C122.543 8.1039 122.232 7.30751 121.61 6.67879C120.987 6.03609 120.206 5.71474 119.265 5.71474C118.325 5.71474 117.543 6.03609 116.921 6.67879C116.299 7.30751 115.987 8.1039 115.987 9.06795C115.987 10.032 116.299 10.8354 116.921 11.4781Z" fill="#382459"/>
<path d="M10.9542 14.3073L9.68521 11.3523H3.98609L2.73867 14.3073H0.145386L5.59671 0.381592H8.07459L13.5267 14.3073H10.9542ZM4.72946 9.08891H8.94185L6.83565 3.23568L4.72946 9.08891Z" fill="#382459"/>
</svg>
